# xmcd CD database file
#
# Track frame offsets:
#	150
#	28312
#	69075
#	93375
#	115387
#	136575
#	144882
#	154275
#	184567
#	203850
#	233525
#	260282
#
# Disc length: 4234 seconds
#
# Revision: 1
# Processed by: cddbd v1.5PL3 Copyright (c) Steve Scherf et al.
# Submitted via: CDex 1.51
#
DISCID=9810880c
DTITLE=Miroslav Vitous and Tom McKinley - Miroslav Vitous and Tom McKinley
DYEAR=1995
DGENRE=Jazz
TTITLE0=Earth Cycle
TTITLE1=Blue Funk
TTITLE2=Sunday Sun
TTITLE3=Blues
TTITLE4=Duet
TTITLE5=Improvisation-McKinley
TTITLE6=Improvisation-Vitous
TTITLE7=My Man's Gone Now
TTITLE8=Somethin' Fun
TTITLE9=Softly as in a Morning Sunrise
TTITLE10=Slav in Prav
TTITLE11=Minority
EXTD=YEAR: 1995
EXTT0=
EXTT1=
EXTT2=
EXTT3=
EXTT4=
EXTT5=
EXTT6=
EXTT7=
EXTT8=
EXTT9=
EXTT10=
EXTT11=
PLAYORDER=
